<?xml version="1.0" standalone="no"?>
<!DOCTYPE svg PUBLIC "-//W3C//DTD SVG 20010904//EN"
 "http://www.w3.org/TR/2001/REC-SVG-20010904/DTD/svg10.dtd">
<svg version="1.0" xmlns="http://www.w3.org/2000/svg"
 width="512.000000pt" height="512.000000pt" viewBox="0 0 512.000000 512.000000"
 preserveAspectRatio="xMidYMid meet">

<g transform="translate(0.000000,512.000000) scale(0.100000,-0.100000)"
fill="#000000" stroke="none">
<path d="M1633 5009 c-97 -9 -168 -35 -214 -76 -48 -44 -60 -84 -49 -165 5
-34 8 -63 7 -64 -1 -1 -62 -14 -135 -28 -150 -29 -159 -33 -196 -76 -51 -61
-49 -71 78 -396 l116 -296 -36 -40 c-63 -70 -76 -113 -72 -241 2 -77 8 -122
19 -143 l16 -31 -66 -29 c-142 -61 -382 -247 -511 -395 -216 -247 -339 -455
-405 -684 -21 -75 -24 -94 -14 -118 21 -51 81 -63 116 -24 11 12 34 67 51 122
56 179 136 322 279 500 181 224 448 441 593 480 21 6 17 -1 -27 -46 -65 -68
-152 -185 -159 -216 -7 -26 15 -67 46 -83 37 -20 68 -1 126 75 80 108 201 217
286 259 l71 36 153 0 c168 0 196 -6 289 -65 76 -49 148 -118 216 -208 73 -97
98 -114 140 -96 34 13 49 36 49 72 0 30 -71 130 -154 216 -66 69 -62 72 41 26
74 -33 155 -90 305 -214 4 -4 1 -42 -7 -86 -19 -107 -19 -330 0 -441 30 -167
100 -340 201 -496 68 -102 239 -272 351 -346 l92 -61 -242 -3 c-273 -3 -287
-7 -359 -86 -46 -51 -61 -98 -56 -182 3 -53 9 -76 31 -109 28 -41 28 -42 9
-69 -32 -48 -42 -81 -42 -143 0 -60 18 -119 46 -150 13 -14 11 -22 -16 -75
-28 -52 -31 -67 -28 -126 l3 -68 -966 0 c-929 0 -969 1 -1043 20 -108 27 -170
63 -251 145 -102 102 -164 245 -165 378 0 21 25 197 55 392 30 194 55 367 55
384 0 41 -31 71 -74 71 -63 0 -66 -9 -130 -426 -49 -320 -58 -392 -53 -464 16
-258 190 -500 430 -597 131 -53 116 -53 1176 -53 932 0 983 -1 976 -17 -5 -10
-10 -48 -13 -84 -7 -110 48 -202 147 -248 33 -14 141 -16 1121 -16 1080 0
1085 0 1130 21 118 55 176 183 136 300 -9 27 -25 60 -35 73 -18 24 -18 25 5
59 57 84 57 190 1 273 l-23 34 29 46 c50 82 47 190 -9 265 l-23 31 23 34 c89
132 38 307 -109 370 -20 9 -107 15 -268 19 l-237 5 92 60 c110 72 262 219 335
327 64 92 134 231 167 330 47 140 61 232 61 403 0 171 -14 263 -61 403 -142
427 -520 763 -951 845 -158 31 -161 31 -194 -2 -35 -35 -37 -61 -6 -95 18 -20
40 -28 117 -41 245 -40 450 -146 624 -321 123 -124 210 -266 266 -434 116
-345 55 -729 -161 -1020 -231 -311 -581 -476 -967 -457 -150 7 -281 41 -419
107 -132 62 -216 122 -318 225 -165 164 -267 361 -311 600 -22 121 -15 346 15
458 110 418 427 731 836 828 50 11 98 28 108 36 22 20 22 71 1 102 -15 21 -22
23 -78 19 -80 -7 -259 -68 -366 -124 -245 -131 -436 -328 -557 -579 l-45 -93
-103 78 c-91 69 -233 150 -263 150 -21 0 -23 19 -6 52 10 20 19 66 22 118 6
116 -14 186 -72 249 l-44 46 114 288 c68 173 114 302 114 323 0 44 -22 87 -57
112 -17 12 -84 31 -165 48 l-136 28 1 87 c2 74 -1 91 -19 116 -56 76 -227 120
-401 102z m225 -164 c29 -9 52 -18 52 -21 0 -12 -100 -810 -105 -841 l-6 -33
-88 0 -87 0 -52 418 c-29 229 -52 427 -52 439 0 18 10 25 48 37 64 20 224 20
290 1z m-429 -567 c18 -150 35 -285 38 -300 5 -27 4 -28 -38 -28 l-44 1 -102
262 c-56 144 -105 269 -108 278 -5 13 11 20 92 37 54 11 105 20 113 21 13 1
21 -46 49 -271z m717 252 c54 -11 100 -22 102 -25 5 -5 -4 -31 -135 -362 l-75
-193 -39 0 c-34 0 -39 3 -39 23 0 12 16 146 35 297 19 151 35 276 35 278 0 5
20 2 116 -18z m-40 -774 c33 -33 34 -36 34 -118 0 -92 -11 -117 -60 -143 -23
-12 -72 -15 -235 -15 l-206 0 -15 35 c-20 48 -19 206 1 245 l16 30 215 0 216
0 34 -34z m2836 -2315 c25 -28 29 -39 24 -70 -3 -21 -16 -45 -31 -58 l-26 -23
-1068 0 -1068 0 -27 26 c-28 29 -35 79 -15 115 26 50 1 49 1127 46 l1054 -2
30 -34z m-9 -331 c50 -40 44 -120 -12 -153 -27 -16 -87 -17 -686 -17 -409 0
-663 -4 -675 -10 -26 -14 -42 -67 -28 -93 25 -48 7 -46 701 -47 721 0 701 2
727 -59 15 -38 7 -75 -25 -107 l-24 -24 -1066 0 -1067 0 -29 29 c-21 22 -29
39 -29 66 0 27 8 44 29 66 l29 29 262 0 261 0 24 25 c32 31 32 69 0 100 l-24
25 -251 0 c-266 0 -296 5 -320 49 -19 36 -12 86 16 115 l27 26 1067 0 c1054 0
1068 0 1093 -20z m9 -699 c25 -28 29 -39 24 -70 -3 -21 -16 -45 -31 -58 l-26
-23 -1068 0 -1068 0 -27 26 c-28 29 -35 79 -15 115 26 50 1 49 1127 46 l1054
-2 30 -34z"/>
<path d="M3813 3510 c-34 -14 -43 -42 -43 -138 l0 -89 -54 -12 c-190 -43 -288
-249 -201 -427 55 -113 154 -164 318 -164 77 0 110 -4 137 -18 107 -53 107
-207 0 -263 -27 -15 -56 -19 -128 -19 -110 0 -155 15 -180 61 -32 60 -57 82
-90 82 -68 0 -92 -65 -52 -142 40 -79 119 -136 205 -148 l45 -6 0 -89 c0 -49
5 -98 11 -109 25 -48 105 -44 128 7 6 14 11 62 11 108 l0 84 37 7 c90 17 184
91 222 175 30 66 29 178 -3 245 -26 57 -99 129 -154 152 -24 11 -82 18 -164
22 -137 7 -157 14 -202 75 -29 38 -29 114 0 152 43 58 68 69 167 72 115 4 151
-12 186 -80 30 -59 65 -77 110 -54 64 34 50 118 -34 202 -40 41 -65 56 -109
69 l-56 16 0 84 c0 94 -11 128 -47 144 -28 13 -30 13 -60 1z"/>
<path d="M1660 2710 c-17 -17 -20 -33 -20 -115 l0 -94 -37 -7 c-96 -17 -187
-87 -226 -173 -31 -66 -30 -189 1 -248 36 -68 83 -114 147 -145 54 -25 70 -28
165 -28 90 0 112 -3 150 -22 107 -55 107 -206 0 -261 -29 -15 -55 -17 -147
-15 -108 3 -113 4 -142 32 -17 16 -34 39 -37 50 -11 36 -36 56 -69 56 -98 0
-102 -113 -8 -207 46 -46 102 -74 160 -81 l43 -5 0 -98 c0 -94 1 -98 26 -118
33 -26 65 -27 95 -2 22 17 24 28 27 120 3 88 6 101 21 101 76 0 198 89 237
175 29 60 32 158 8 228 -21 63 -84 130 -151 163 -50 25 -72 29 -182 34 -148 6
-178 20 -206 95 -22 57 -14 104 26 150 36 41 80 55 168 55 90 0 142 -26 170
-86 31 -66 84 -82 126 -39 31 31 31 63 0 124 -35 69 -107 125 -180 141 l-30 6
-5 96 c-4 76 -9 100 -24 117 -25 27 -79 28 -106 1z"/>
</g>
</svg>
